<svg xmlns="http://www.w3.org/2000/svg" viewBox="0 0 373.41 262.95"><defs><style>.a{fill:#fff;stroke:#fff;stroke-miterlimit:10;stroke-width:14px;}</style></defs><title>balao-de-fala</title><path class="a" d="M386.86,156.44C375.48,118.67,334,99.63,284.45,99.5c-78-.2-105.8,33-105.5,78.75.42,64.48,51.26,69.88,61,74.75,9,4.5,4.09,24.65-9,42.5-5.5,7.5,62.44-34.76,65.5-35.5a258.25,258.25,0,0,0,32.82-10.15c11.38-4.92,16-4.83,27-13.64A110.91,110.91,0,0,0,383,205.84C392.15,190.37,389.83,174,386.86,156.44Z" transform="translate(-171.95 -92.5)"/><path class="a" d="M432.85,151.55c-17.88,0-33.12,1.67-46,4.89A75.37,75.37,0,0,1,390,178.25c0,34.38-23.06,56.87-60.68,71.6,9.4,46.14,50.43,50.88,59.08,55.2,9,4.5,4.09,24.65-9,42.5-5.5,7.5,62.45-34.75,65.5-35.5,56.62-13.76,93.5-38.25,93.5-81.75C538.35,178.05,491.12,151.7,432.85,151.55Z" transform="translate(-171.95 -92.5)"/></svg>